<svg width="32" height="32" viewBox="0 0 32 32" fill="none" xmlns="http://www.w3.org/2000/svg">
<path d="M20.75 7.75L18.5 6.75L18 4H14.75L14 6.75L11.5 7.75L9.25 6.25L6.75 8.5L8.25 11L7.25 13.5L4.5 14.25V17.5L7.25 18.25L8.25 20.5L6.75 22.75L9.25 25.25L11.5 23.75L14 24.75L14.5 27.5H18L18.5 24.75L21 23.75L23.25 25.25L25.75 22.75L24.25 20.5L25.25 18.25L28 17.5V14.25L25.25 13.5L24.25 11L25.75 8.5L23.25 6.25L20.75 7.75Z" stroke="#2196F3" stroke-width="2" stroke-linecap="square" stroke-linejoin="round"/>
<circle cx="16.25" cy="15.75" r="4.5" stroke="#2196F3" stroke-width="2"/>
</svg>
